<svg width="32" height="32" viewBox="0 0 32 32" fill="none" xmlns="http://www.w3.org/2000/svg">
  <rect width="32" height="32" rx="16" fill="#1068F8"/>
  <path d="M8 12.8C8 10.3431 10.0132 8.32989 12.4701 8.32989H19.5299C21.9868 8.32989 24 10.3431 24 12.8V19.2C24 21.6569 21.9868 23.6701 19.5299 23.6701H12.4701C10.0132 23.6701 8 21.6569 8 19.2V12.8Z" fill="white"/>
  <path d="M12.4701 9.6299C10.7322 9.6299 9.32993 11.0322 9.32993 12.77V19.23C9.32993 20.9678 10.7322 22.3701 12.4701 22.3701H19.5299C21.2678 22.3701 22.6701 20.9678 22.6701 19.23V12.77C22.6701 11.0322 21.2678 9.6299 19.5299 9.6299H12.4701Z" fill="#1068F8"/>
  <circle cx="16" cy="16" r="4" fill="white"/>
</svg>
