<svg width="212" height="189" viewBox="0 0 212 189" fill="none" xmlns="http://www.w3.org/2000/svg">
<g clip-path="url(#clip0_1512_1323)">
<path d="M40.74 1.23L1.83 30.11L9.08 99.29L39.23 131.99L87.24 131.94L87.45 157.59L87.45 171.94L87.45 176.58L114.41 176.58L142.17 176.58L142.17 171.94L142.17 157.59L142.38 131.94L190.39 131.99L220.54 99.29L227.79 30.11L188.88 1.23L40.74 1.23Z" fill="#E17726" stroke="#E17726" stroke-width="5" stroke-linecap="round" stroke-linejoin="round"/>
<path d="M188.88 1.23L148.92 31.34L152.73 48.29L188.88 1.23Z" fill="#E27625" stroke="#E27625" stroke-width="5" stroke-linecap="round" stroke-linejoin="round"/>
<path d="M40.74 1.23L80.69 48.29L84.51 31.34L40.74 1.23Z" fill="#E27625" stroke="#E27625" stroke-width="5" stroke-linecap="round" stroke-linejoin="round"/>
<path d="M152.73 48.29L87.45 53.28L95.77 73.56L152.73 48.29Z" fill="#E27625" stroke="#E27625" stroke-width="5" stroke-linecap="round" stroke-linejoin="round"/>
<path d="M80.69 48.29L66.46 73.56L87.45 53.28L80.69 48.29Z" fill="#E27625" stroke="#E27625" stroke-width="5" stroke-linecap="round" stroke-linejoin="round"/>
<path d="M68.1 101.35L61.79 91.37L78.25 83.95L68.1 101.35Z" fill="#E27625" stroke="#E27625" stroke-width="5" stroke-linecap="round" stroke-linejoin="round"/>
<path d="M164.13 101.35L153.98 83.95L170.44 91.37L164.13 101.35Z" fill="#E27625" stroke="#E27625" stroke-width="5" stroke-linecap="round" stroke-linejoin="round"/>
<path d="M87.45 53.28L66.46 73.56L78.25 83.95L87.45 53.28Z" fill="#E27625" stroke="#E27625" stroke-width="5" stroke-linecap="round" stroke-linejoin="round"/>
<path d="M95.77 73.56L87.45 53.28L153.98 83.95L95.77 73.56Z" fill="#E27625" stroke="#E27625" stroke-width="5" stroke-linecap="round" stroke-linejoin="round"/>
<path d="M78.25 83.95L95.77 73.56L153.98 83.95L78.25 83.95Z" fill="#F5841F" stroke="#F5841F" stroke-width="5" stroke-linecap="round" stroke-linejoin="round"/>
<path d="M194.86 46.09L188.88 1.23L152.73 48.29L194.86 46.09Z" fill="#F5841F" stroke="#F5841F" stroke-width="5" stroke-linecap="round" stroke-linejoin="round"/>
<path d="M80.69 48.29L40.74 1.23L34.76 46.09L80.69 48.29Z" fill="#F5841F" stroke="#F5841F" stroke-width="5" stroke-linecap="round" stroke-linejoin="round"/>
<path d="M170.44 91.37L194.86 46.09L152.73 48.29L170.44 91.37Z" fill="#F5841F" stroke="#F5841F" stroke-width="5" stroke-linecap="round" stroke-linejoin="round"/>
<path d="M78.25 83.95L80.69 48.29L34.76 46.09L78.25 83.95Z" fill="#F5841F" stroke="#F5841F" stroke-width="5" stroke-linecap="round" stroke-linejoin="round"/>
<path d="M61.79 91.37L34.76 46.09L78.25 83.95L61.79 91.37Z" fill="#F5841F" stroke="#F5841F" stroke-width="5" stroke-linecap="round" stroke-linejoin="round"/>
<path d="M153.98 83.95L194.86 46.09L170.44 91.37L153.98 83.95Z" fill="#F5841F" stroke="#F5841F" stroke-width="5" stroke-linecap="round" stroke-linejoin="round"/>
<path d="M87.45 131.94L68.1 101.35L61.79 91.37L87.45 131.94Z" fill="#C0AC9D" stroke="#C0AC9D" stroke-width="5" stroke-linecap="round" stroke-linejoin="round"/>
<path d="M142.17 131.94L170.44 91.37L164.13 101.35L142.17 131.94Z" fill="#C0AC9D" stroke="#C0AC9D" stroke-width="5" stroke-linecap="round" stroke-linejoin="round"/>
<path d="M142.17 131.94L164.13 101.35L153.98 83.95L142.17 131.94Z" fill="#C0AC9D" stroke="#C0AC9D" stroke-width="5" stroke-linecap="round" stroke-linejoin="round"/>
<path d="M78.25 83.95L68.1 101.35L87.45 131.94L78.25 83.95Z" fill="#C0AC9D" stroke="#C0AC9D" stroke-width="5" stroke-linecap="round" stroke-linejoin="round"/>
<path d="M87.45 131.94L142.17 131.94L114.81 115.27L87.45 131.94Z" fill="#161616" stroke="#161616" stroke-width="5" stroke-linecap="round" stroke-linejoin="round"/>
<path d="M87.45 157.59L87.45 131.94L114.81 115.27L142.17 131.94L142.17 157.59L114.81 157.59L87.45 157.59Z" fill="#763E1A" stroke="#763E1A" stroke-width="5" stroke-linecap="round" stroke-linejoin="round"/>
</g>
<defs>
<clipPath id="clip0_1512_1323">
<rect width="212" height="189" fill="white"/>
</clipPath>
</defs>
</svg>
